<?xml version="1.0" encoding="UTF-8" standalone="no"?>
<!-- Created with Inkscape (http://www.inkscape.org/) -->

<svg
   version="1.1"
   id="svg1"
   width="321.92001"
   height="325.12"
   viewBox="0 0 321.92001 325.12"
   xml:space="preserve"
   xmlns:xlink="http://www.w3.org/1999/xlink"
   xmlns="http://www.w3.org/2000/svg"
   xmlns:svg="http://www.w3.org/2000/svg"><defs
     id="defs1"><marker
       style="overflow:visible"
       id="SemiCircleFilled"
       refX="3"
       refY="-0.028999999"
       orient="auto"
       markerWidth="0.147"
       markerHeight="0.147"
       viewBox="0 0 1 1"
       preserveAspectRatio="xMidYMid"><path
         style="fill:context-stroke;fill-rule:evenodd;stroke:context-stroke;stroke-width:0.6pt"
         d="m -0.22470421,-0.02741555 c 0,1.65599995 1.34400001,2.99999995 3.00000001,2.99999995 v -6 c -1.656,0 -3.00000001,1.344 -3.00000001,3.00000005 z"
         id="path25" /></marker><linearGradient
       id="linearGradient14"><stop
         style="stop-color:#393948;stop-opacity:1;"
         offset="0"
         id="stop14" /><stop
         style="stop-color:#2e2e37;stop-opacity:1;"
         offset="0.5283981"
         id="stop21" /><stop
         style="stop-color:#1c1c24;stop-opacity:1;"
         offset="0.83531523"
         id="stop15" /></linearGradient><linearGradient
       xlink:href="#linearGradient14"
       id="linearGradient15"
       x1="21.769501"
       y1="18.456112"
       x2="305.38052"
       y2="300.80759"
       gradientUnits="userSpaceOnUse" /></defs><g
     id="g1"
     style="display:inline"><path
       style="display:inline;fill:url(#linearGradient15)"
       d="M 0.24750304,67.221826 C 0.2682158,51.648095 9.3173213,31.722875 21.592466,18.798824 33.796698,6.6371916 59.393526,-0.05256542 70.73637,-0.04950061 L 253.93812,0 c 12.36746,0.00334165 37.71418,10.203879 47.77877,19.769436 9.86437,9.375262 20.29585,31.775053 20.29585,44.324027 V 262.52223 c 0,15.11986 -10.90085,32.23604 -16.72332,38.26226 -6.5547,6.78407 -24.35729,24.47973 -43.80154,24.46878 l -186.434706,-0.105 C 62.318249,325.1411 34.839618,320.79681 19.008962,306.84918 7.6685886,296.85772 -0.03220137,277.52894 -0.0107671,261.41271 Z"
       id="path1" /><path
       style="display:inline;fill:none;fill-opacity:1;stroke:#8efffa;stroke-width:2.5;stroke-linecap:round;stroke-linejoin:round;stroke-dasharray:none;stroke-opacity:1"
       d="m 51.183629,47.520584 c -0.687684,3.9e-4 -2.600808,1.078355 -3.564044,2.079025 -0.963236,1.00067 -1.980181,3.011288 -1.980024,3.712546 1.57e-4,0.701259 0.04934,220.386795 0.0495,221.119215 1.64e-4,0.73242 1.263283,2.82821 2.351278,3.71254 1.087995,0.88433 3.092402,1.41078 3.762047,1.41078 0.669646,0 218.101634,0 218.817434,0 0.7158,0 2.68535,-1.27563 3.62592,-2.30178 0.94057,-1.02615 1.86781,-2.92499 1.86865,-3.60117 8.4e-4,-0.67619 0.27126,-217.764959 0.27226,-218.681314 0.001,-0.916355 -1.24958,-3.620743 -2.44853,-4.922823 -1.19895,-1.30208 -3.52892,-2.651254 -4.38256,-2.65077 -0.85364,4.84e-4 -217.684247,0.123361 -218.371931,0.123751 z"
       id="path3" /><path
       style="display:inline;fill:#8efffa;fill-opacity:1;stroke:#8efffa;stroke-width:2.5;stroke-linecap:round;stroke-linejoin:round;stroke-dasharray:none;stroke-opacity:1"
       d="m 45.689062,245.49827 h 18.042971 c 0.773993,0 1.784076,-0.86389 2.482119,-0.8617 0.698041,0.002 1.74756,0.31671 1.732698,0.87795 -0.01486,0.56124 -1.048335,0.87296 -1.752142,0.87178 -0.703807,-0.001 -1.585886,-0.88044 -2.455425,-0.88078 l -18.050221,-0.007 z"
       id="path4" /><path
       style="display:inline;fill:none;fill-opacity:1;stroke:#8efffa;stroke-width:2.5;stroke-linecap:round;stroke-linejoin:round;stroke-dasharray:none;stroke-opacity:1"
       d="m 82.220205,279.6502 v -7.77048 z"
       id="path5" /><path
       style="display:inline;fill:none;fill-opacity:1;stroke:#8efffa;stroke-width:2.5;stroke-linecap:round;stroke-linejoin:round;stroke-dasharray:none;stroke-opacity:1"
       d="m 243.41924,47.867083 c -1.42544,0.424779 -2.70758,1.364596 -3.7373,2.437905 -1.13968,1.187931 -2.53243,2.598471 -2.52453,4.244677 l 0.12375,25.789817 c 0.007,1.549783 1.20763,2.936883 2.28941,4.046676 1.02414,1.050665 2.3072,2.270177 3.77442,2.264651 l 26.28482,-0.099 c 1.54737,-0.0058 2.99028,-1.039279 4.16903,-2.041749 0.95146,-0.809169 2.15791,-1.807837 2.16705,-3.056813 l 0.198,-27.052078 c 0.0109,-1.488787 -1.01836,-2.89122 -2.04189,-3.972423 -1.17675,-1.243066 -2.71999,-2.59629 -4.4317,-2.594172 l -26.27106,0.03251 z"
       id="path6" /><path
       style="display:inline;fill:#8efffa;fill-opacity:1;stroke:#8efffa;stroke-width:2.5;stroke-linecap:round;stroke-linejoin:round;stroke-dasharray:none;stroke-opacity:1"
       d="m 84.587616,47.848393 -33.424628,-0.04313 c -1.150356,-0.0015 -2.176728,0.879405 -3.031423,1.649351 -0.936297,0.843457 -2.142137,1.854646 -2.142536,3.114833 l -0.01062,33.521143 c -1.22e-4,0.386208 0.557169,0.54815 0.894164,0.736805 0.364654,0.204139 0.76756,0.408433 1.185465,0.408015 l 34.596689,-0.03464 c 0.554933,-5.56e-4 1.182052,-0.0027 1.632364,-0.327032 0.200263,-0.144223 0.368473,-0.395624 0.368039,-0.642414 z"
       id="path7" /><path
       style="display:inline;fill:none;fill-opacity:1;stroke:#ffffff;stroke-width:2.5;stroke-linecap:round;stroke-linejoin:round;stroke-dasharray:none;stroke-opacity:1"
       d="m 83.012521,248.51776 c 3.22359,-0.0479 7.062053,2.96941 7.053835,6.95484 -0.0082,3.98543 -2.760408,7.16837 -6.707333,7.37559 -3.946925,0.20722 -7.642829,-1.9729 -7.598343,-7.17758 0.04449,-5.20468 4.028251,-7.10497 7.251841,-7.15285 z"
       id="path8" /><path
       style="fill:none;fill-opacity:1;stroke:#ffffff;stroke-width:2.5;stroke-linecap:round;stroke-linejoin:round;stroke-dasharray:none;stroke-opacity:1"
       d="m 161.88807,123.55351 c -26.53993,0 -45.85864,21.66639 -45.85864,47.12459 0,25.4582 25.43911,44.24238 45.14456,44.24238 19.70545,0 45.54055,-22.35147 45.54055,-45.82641 0,-23.47495 -18.28654,-45.54056 -44.82647,-45.54056 z"
       id="path9" /><path
       style="fill:none;fill-opacity:1;stroke:#ffffff;stroke-width:2.5;stroke-linecap:round;stroke-linejoin:round;stroke-dasharray:none;stroke-opacity:1"
       d="m 145.13578,104.05028 c 3.77464,-4.13553 -1.50031,-8.910734 3.56405,-12.771158 5.06436,-3.860424 23.18796,-3.570264 28.1983,0.151 5.01034,3.721264 2.77422,10.333938 3.86092,11.611958 1.0867,1.27802 9.38077,8.66177 14.86735,7.93828 5.48658,-0.72349 3.83542,-8.55063 10.39513,-8.13217 6.55971,0.41846 17.5621,12.28111 18.44528,18.66319 0.88318,6.38208 -5.86068,5.46718 -6.00218,10.87023 -0.1415,5.40305 4.84276,14.5996 8.74316,18.00124 3.9004,3.40164 6.33718,-2.1885 10.49413,3.42815 4.15695,5.61665 5.08114,24.71357 0.59401,30.88014 -4.48713,6.16657 -10.31047,0.74307 -14.23627,4.30218 -3.9258,3.55911 -6.85904,10.45814 -6.45499,15.64219 0.40405,5.18405 8.23173,5.64042 7.42509,12.19414 -0.80664,6.55372 -11.63268,17.29395 -18.0352,17.80323 -6.40252,0.50928 -5.21426,-7.03009 -10.73726,-7.66822 -5.523,-0.63813 -14.95896,3.53734 -18.64912,7.66822 -3.69016,4.13088 1.54972,8.7755 -3.58102,12.57025 -5.13074,3.79475 -20.28532,3.22605 -25.21426,-0.49501 -4.92894,-3.72106 -0.1213,-7.21847 -3.46504,-11.31719 -3.34374,-4.09872 -11.70156,-9.87403 -17.47226,-9.52936 -5.7707,0.34467 -5.38736,9.08333 -12.04418,8.57331 -6.65682,-0.51002 -17.430575,-10.91416 -18.117219,-17.62222 -0.686644,-6.70807 7.688339,-6.99027 8.514109,-12.57315 0.82577,-5.58288 -1.04479,-14.21163 -5.54699,-17.83429 -4.502199,-3.62266 -10.839085,4.18292 -15.936279,-1.37195 -5.097194,-5.55487 -4.497002,-23.85363 0,-29.23932 4.497002,-5.38569 8.332684,1.50486 12.652256,-2.29401 4.319573,-3.79887 7.043013,-14.89687 6.553983,-20.64031 -0.48903,-5.74344 -7.003295,-5.36386 -5.940076,-11.48414 1.06322,-6.12029 11.761856,-16.01339 17.820216,-16.58271 6.05836,-0.56932 4.90555,5.94721 10.29613,6.48459 5.39058,0.53738 15.23359,-3.09156 19.00823,-7.22709 z"
       id="path10" /><path
       id="path11"
       style="display:inline;fill:none;fill-opacity:1;stroke:#ffffff;stroke-width:23;stroke-linecap:butt;stroke-linejoin:round;stroke-dasharray:none;stroke-opacity:1;marker-start:url(#SemiCircleFilled)"
       d="m 81.485158,138.32876 43.701062,85.95439 12.42691,-23.86522" /><path
       id="path17"
       style="display:inline;fill:none;fill-opacity:1;stroke:#ffffff;stroke-width:23;stroke-linecap:butt;stroke-linejoin:round;stroke-dasharray:none;stroke-opacity:1;marker-start:url(#SemiCircleFilled)"
       d="m 250.33585,120.1276 -54.32344,101.92646 -35.36427,-66.64422 -17.5421,33.74917" /></g></svg>
